<mxfile host="Electron" agent="Mozilla/5.0 (Windows NT 10.0; Win64; x64) AppleWebKit/537.36 (KHTML, like Gecko) draw.io/24.7.17 Chrome/128.0.6613.36 Electron/32.0.1 Safari/537.36" version="24.7.17">
  <diagram name="Страница — 1" id="kiC4WFDwIPs5eOKipnF8">
    <mxGraphModel dx="1276" dy="654" grid="1" gridSize="10" guides="1" tooltips="1" connect="1" arrows="1" fold="1" page="1" pageScale="1" pageWidth="827" pageHeight="1169" math="0" shadow="0">
      <root>
        <mxCell id="0" />
        <mxCell id="1" parent="0" />
        <mxCell id="5_U__uveVMWSaCAfLVW6-1" value="Начало" style="ellipse;whiteSpace=wrap;html=1;" parent="1" vertex="1">
          <mxGeometry x="136.84" y="10" width="81" height="30" as="geometry" />
        </mxCell>
        <mxCell id="5_U__uveVMWSaCAfLVW6-2" value="" style="endArrow=none;html=1;rounded=0;" parent="1" edge="1">
          <mxGeometry width="50" height="50" relative="1" as="geometry">
            <mxPoint x="176.84" y="90" as="sourcePoint" />
            <mxPoint x="176.84" y="40" as="targetPoint" />
          </mxGeometry>
        </mxCell>
        <mxCell id="5_U__uveVMWSaCAfLVW6-3" value="" style="endArrow=none;dashed=1;html=1;rounded=0;" parent="1" edge="1">
          <mxGeometry width="50" height="50" relative="1" as="geometry">
            <mxPoint x="177.84" y="60" as="sourcePoint" />
            <mxPoint x="267.84000000000003" y="60" as="targetPoint" />
            <Array as="points" />
          </mxGeometry>
        </mxCell>
        <mxCell id="5_U__uveVMWSaCAfLVW6-4" value="" style="endArrow=none;html=1;rounded=0;" parent="1" edge="1">
          <mxGeometry width="50" height="50" relative="1" as="geometry">
            <mxPoint x="267.84000000000003" y="100" as="sourcePoint" />
            <mxPoint x="267.84000000000003" y="20" as="targetPoint" />
          </mxGeometry>
        </mxCell>
        <mxCell id="5_U__uveVMWSaCAfLVW6-5" value="&lt;div&gt;#include &amp;lt;math.h&amp;gt;&lt;/div&gt;#include &amp;lt;iostream&amp;gt;&lt;div&gt;#include &amp;lt;clocale&amp;gt;&lt;/div&gt;&lt;div&gt;#include &amp;lt;ctime&amp;gt;&lt;br&gt;&lt;/div&gt;&lt;div&gt;using namespace std;&lt;/div&gt;" style="text;html=1;align=left;verticalAlign=middle;whiteSpace=wrap;rounded=0;" parent="1" vertex="1">
          <mxGeometry x="277.84000000000003" y="50" width="190" height="30" as="geometry" />
        </mxCell>
        <mxCell id="5_U__uveVMWSaCAfLVW6-6" value="int main()" style="shape=process;whiteSpace=wrap;html=1;backgroundOutline=1;" parent="1" vertex="1">
          <mxGeometry x="132.09" y="90" width="90.5" height="40" as="geometry" />
        </mxCell>
        <mxCell id="5_U__uveVMWSaCAfLVW6-7" value="" style="endArrow=none;html=1;rounded=0;" parent="1" edge="1">
          <mxGeometry width="50" height="50" relative="1" as="geometry">
            <mxPoint x="177.84" y="160" as="sourcePoint" />
            <mxPoint x="177.84" y="130" as="targetPoint" />
          </mxGeometry>
        </mxCell>
        <mxCell id="5_U__uveVMWSaCAfLVW6-8" value="{" style="text;html=1;align=center;verticalAlign=middle;whiteSpace=wrap;rounded=0;" parent="1" vertex="1">
          <mxGeometry x="132.09" y="120" width="35.75" height="30" as="geometry" />
        </mxCell>
        <mxCell id="5_U__uveVMWSaCAfLVW6-9" value="setlocale(LC_ALL,&quot;Russian&quot;)" style="rounded=0;whiteSpace=wrap;html=1;" parent="1" vertex="1">
          <mxGeometry x="97.34" y="190" width="160" height="40" as="geometry" />
        </mxCell>
        <mxCell id="5_U__uveVMWSaCAfLVW6-10" value="" style="endArrow=none;html=1;rounded=0;" parent="1" edge="1">
          <mxGeometry width="50" height="50" relative="1" as="geometry">
            <mxPoint x="176.84" y="260" as="sourcePoint" />
            <mxPoint x="176.84" y="230" as="targetPoint" />
            <Array as="points">
              <mxPoint x="176.84" y="250" />
            </Array>
          </mxGeometry>
        </mxCell>
        <mxCell id="5_U__uveVMWSaCAfLVW6-11" value="float eps, x1, x2, pogreshost, k;" style="rounded=0;whiteSpace=wrap;html=1;" parent="1" vertex="1">
          <mxGeometry x="96.84" y="250" width="160.5" height="50" as="geometry" />
        </mxCell>
        <mxCell id="5_U__uveVMWSaCAfLVW6-12" value="" style="endArrow=none;html=1;rounded=0;entryX=0.5;entryY=1;entryDx=0;entryDy=0;exitX=0.5;exitY=0;exitDx=0;exitDy=0;" parent="1" source="5_U__uveVMWSaCAfLVW6-13" target="5_U__uveVMWSaCAfLVW6-11" edge="1">
          <mxGeometry width="50" height="50" relative="1" as="geometry">
            <mxPoint x="176.34" y="340" as="sourcePoint" />
            <mxPoint x="176.34" y="310" as="targetPoint" />
            <Array as="points">
              <mxPoint x="176.34" y="330" />
            </Array>
          </mxGeometry>
        </mxCell>
        <mxCell id="5_U__uveVMWSaCAfLVW6-13" value="float e = exp(1.0);" style="rounded=0;whiteSpace=wrap;html=1;" parent="1" vertex="1">
          <mxGeometry x="116.84" y="320" width="121" height="30" as="geometry" />
        </mxCell>
        <mxCell id="5_U__uveVMWSaCAfLVW6-14" value="" style="endArrow=none;html=1;rounded=0;entryX=0.5;entryY=1;entryDx=0;entryDy=0;exitX=0.5;exitY=0;exitDx=0;exitDy=0;" parent="1" source="5_U__uveVMWSaCAfLVW6-15" edge="1">
          <mxGeometry width="50" height="50" relative="1" as="geometry">
            <mxPoint x="176.34" y="390" as="sourcePoint" />
            <mxPoint x="176.84" y="350" as="targetPoint" />
            <Array as="points">
              <mxPoint x="176.34" y="380" />
            </Array>
          </mxGeometry>
        </mxCell>
        <mxCell id="5_U__uveVMWSaCAfLVW6-15" value="k = 0;" style="rounded=0;whiteSpace=wrap;html=1;" parent="1" vertex="1">
          <mxGeometry x="116.59" y="370" width="121" height="30" as="geometry" />
        </mxCell>
        <mxCell id="5_U__uveVMWSaCAfLVW6-17" value="" style="endArrow=none;html=1;rounded=0;entryX=0.5;entryY=1;entryDx=0;entryDy=0;exitX=0.5;exitY=0;exitDx=0;exitDy=0;" parent="1" source="5_U__uveVMWSaCAfLVW6-18" edge="1">
          <mxGeometry width="50" height="50" relative="1" as="geometry">
            <mxPoint x="176.59" y="440" as="sourcePoint" />
            <mxPoint x="177.09" y="400" as="targetPoint" />
            <Array as="points">
              <mxPoint x="176.59" y="430" />
            </Array>
          </mxGeometry>
        </mxCell>
        <mxCell id="5_U__uveVMWSaCAfLVW6-18" value="cout &lt;&lt; &quot;Введите точность - &quot;;" style="rounded=0;whiteSpace=wrap;html=1;" parent="1" vertex="1">
          <mxGeometry x="116.84" y="420" width="121" height="40" as="geometry" />
        </mxCell>
        <mxCell id="5_U__uveVMWSaCAfLVW6-19" value="" style="endArrow=none;html=1;rounded=0;entryX=0.5;entryY=1;entryDx=0;entryDy=0;exitX=0.5;exitY=0;exitDx=0;exitDy=0;" parent="1" source="5_U__uveVMWSaCAfLVW6-20" edge="1">
          <mxGeometry width="50" height="50" relative="1" as="geometry">
            <mxPoint x="176.34" y="500" as="sourcePoint" />
            <mxPoint x="176.84" y="460" as="targetPoint" />
            <Array as="points">
              <mxPoint x="176.34" y="490" />
            </Array>
          </mxGeometry>
        </mxCell>
        <mxCell id="5_U__uveVMWSaCAfLVW6-20" value="cin &gt;&gt; eps;" style="rounded=0;whiteSpace=wrap;html=1;" parent="1" vertex="1">
          <mxGeometry x="132.09" y="480" width="91.25" height="30" as="geometry" />
        </mxCell>
        <mxCell id="5_U__uveVMWSaCAfLVW6-21" value="" style="endArrow=none;html=1;rounded=0;entryX=0.5;entryY=1;entryDx=0;entryDy=0;exitX=0.5;exitY=0;exitDx=0;exitDy=0;" parent="1" source="5_U__uveVMWSaCAfLVW6-22" edge="1">
          <mxGeometry width="50" height="50" relative="1" as="geometry">
            <mxPoint x="176.34" y="550" as="sourcePoint" />
            <mxPoint x="176.84" y="510" as="targetPoint" />
            <Array as="points">
              <mxPoint x="176.34" y="540" />
            </Array>
          </mxGeometry>
        </mxCell>
        <mxCell id="5_U__uveVMWSaCAfLVW6-22" value="x1 = (2 + 1) / 2;" style="rounded=0;whiteSpace=wrap;html=1;" parent="1" vertex="1">
          <mxGeometry x="132.09" y="530" width="91.25" height="30" as="geometry" />
        </mxCell>
        <mxCell id="5_U__uveVMWSaCAfLVW6-23" value="" style="endArrow=none;html=1;rounded=0;entryX=0.5;entryY=1;entryDx=0;entryDy=0;exitX=0.5;exitY=0;exitDx=0;exitDy=0;" parent="1" source="5_U__uveVMWSaCAfLVW6-24" edge="1">
          <mxGeometry width="50" height="50" relative="1" as="geometry">
            <mxPoint x="175.97" y="600" as="sourcePoint" />
            <mxPoint x="176.47" y="560" as="targetPoint" />
            <Array as="points">
              <mxPoint x="175.97" y="590" />
            </Array>
          </mxGeometry>
        </mxCell>
        <mxCell id="5_U__uveVMWSaCAfLVW6-24" value="pogreshost = abs(x1 - x2);" style="rounded=0;whiteSpace=wrap;html=1;" parent="1" vertex="1">
          <mxGeometry x="131.72" y="580" width="91.25" height="30" as="geometry" />
        </mxCell>
        <mxCell id="5_U__uveVMWSaCAfLVW6-25" value="&amp;nbsp; while (pogreshost &amp;gt; eps)" style="rhombus;whiteSpace=wrap;html=1;" parent="1" vertex="1">
          <mxGeometry x="458.06" y="110.5" width="130.37" height="70" as="geometry" />
        </mxCell>
        <mxCell id="5_U__uveVMWSaCAfLVW6-26" value="" style="endArrow=none;html=1;rounded=0;entryX=0.5;entryY=1;entryDx=0;entryDy=0;exitX=0.5;exitY=0;exitDx=0;exitDy=0;" parent="1" target="5_U__uveVMWSaCAfLVW6-24" edge="1">
          <mxGeometry width="50" height="50" relative="1" as="geometry">
            <mxPoint x="177.0849999999999" y="630" as="sourcePoint" />
            <mxPoint x="277.84000000000003" y="550" as="targetPoint" />
          </mxGeometry>
        </mxCell>
        <mxCell id="5_U__uveVMWSaCAfLVW6-27" value="" style="endArrow=none;html=1;rounded=0;entryX=0.5;entryY=1;entryDx=0;entryDy=0;exitX=0.5;exitY=0;exitDx=0;exitDy=0;" parent="1" source="5_U__uveVMWSaCAfLVW6-28" edge="1">
          <mxGeometry width="50" height="50" relative="1" as="geometry">
            <mxPoint x="522.5" y="220.5" as="sourcePoint" />
            <mxPoint x="523" y="180.5" as="targetPoint" />
            <Array as="points">
              <mxPoint x="522.5" y="210.5" />
            </Array>
          </mxGeometry>
        </mxCell>
        <mxCell id="5_U__uveVMWSaCAfLVW6-28" value="x2 = pow(e, (0.1 * x1));" style="rounded=0;whiteSpace=wrap;html=1;" parent="1" vertex="1">
          <mxGeometry x="458.06" y="200.5" width="135.75" height="30" as="geometry" />
        </mxCell>
        <mxCell id="5_U__uveVMWSaCAfLVW6-29" value="" style="endArrow=none;html=1;rounded=0;entryX=0.5;entryY=1;entryDx=0;entryDy=0;exitX=0.5;exitY=0;exitDx=0;exitDy=0;" parent="1" source="5_U__uveVMWSaCAfLVW6-30" edge="1">
          <mxGeometry width="50" height="50" relative="1" as="geometry">
            <mxPoint x="522.5" y="270.5" as="sourcePoint" />
            <mxPoint x="523" y="230.5" as="targetPoint" />
            <Array as="points">
              <mxPoint x="522.5" y="260.5" />
            </Array>
          </mxGeometry>
        </mxCell>
        <mxCell id="5_U__uveVMWSaCAfLVW6-30" value="pogreshost = abs(x2 - x1);" style="rounded=0;whiteSpace=wrap;html=1;" parent="1" vertex="1">
          <mxGeometry x="458.06" y="250.5" width="135.75" height="40" as="geometry" />
        </mxCell>
        <mxCell id="5_U__uveVMWSaCAfLVW6-31" value="" style="endArrow=none;html=1;rounded=0;entryX=0.5;entryY=1;entryDx=0;entryDy=0;exitX=0.5;exitY=0;exitDx=0;exitDy=0;" parent="1" source="5_U__uveVMWSaCAfLVW6-32" edge="1">
          <mxGeometry width="50" height="50" relative="1" as="geometry">
            <mxPoint x="522.5" y="330.5" as="sourcePoint" />
            <mxPoint x="523" y="290.5" as="targetPoint" />
            <Array as="points">
              <mxPoint x="522.5" y="320.5" />
            </Array>
          </mxGeometry>
        </mxCell>
        <mxCell id="5_U__uveVMWSaCAfLVW6-32" value="x1 = x2;" style="rounded=0;whiteSpace=wrap;html=1;" parent="1" vertex="1">
          <mxGeometry x="473.24" y="310.5" width="100" height="30" as="geometry" />
        </mxCell>
        <mxCell id="5_U__uveVMWSaCAfLVW6-33" value="" style="endArrow=none;html=1;rounded=0;entryX=0.5;entryY=1;entryDx=0;entryDy=0;exitX=0.5;exitY=0;exitDx=0;exitDy=0;" parent="1" source="5_U__uveVMWSaCAfLVW6-34" edge="1">
          <mxGeometry width="50" height="50" relative="1" as="geometry">
            <mxPoint x="522.76" y="380.5" as="sourcePoint" />
            <mxPoint x="523.26" y="340.5" as="targetPoint" />
            <Array as="points">
              <mxPoint x="522.76" y="370.5" />
            </Array>
          </mxGeometry>
        </mxCell>
        <mxCell id="5_U__uveVMWSaCAfLVW6-34" value="k++;" style="rounded=0;whiteSpace=wrap;html=1;" parent="1" vertex="1">
          <mxGeometry x="473.5" y="360.5" width="100" height="30" as="geometry" />
        </mxCell>
        <mxCell id="5_U__uveVMWSaCAfLVW6-35" value="" style="endArrow=none;html=1;rounded=0;entryX=0.5;entryY=1;entryDx=0;entryDy=0;exitX=0;exitY=0.5;exitDx=0;exitDy=0;" parent="1" source="5_U__uveVMWSaCAfLVW6-25" target="5_U__uveVMWSaCAfLVW6-34" edge="1">
          <mxGeometry width="50" height="50" relative="1" as="geometry">
            <mxPoint x="574" y="280.5" as="sourcePoint" />
            <mxPoint x="624" y="230.5" as="targetPoint" />
            <Array as="points">
              <mxPoint x="414" y="145.5" />
              <mxPoint x="414" y="430.5" />
              <mxPoint x="524" y="430.5" />
            </Array>
          </mxGeometry>
        </mxCell>
        <mxCell id="5_U__uveVMWSaCAfLVW6-36" value="" style="endArrow=none;html=1;rounded=0;exitX=1;exitY=0.5;exitDx=0;exitDy=0;" parent="1" source="5_U__uveVMWSaCAfLVW6-25" target="5_U__uveVMWSaCAfLVW6-37" edge="1">
          <mxGeometry width="50" height="50" relative="1" as="geometry">
            <mxPoint x="574" y="280.5" as="sourcePoint" />
            <mxPoint x="634" y="470.5" as="targetPoint" />
            <Array as="points">
              <mxPoint x="634" y="145.5" />
              <mxPoint x="674" y="145.5" />
            </Array>
          </mxGeometry>
        </mxCell>
        <mxCell id="5_U__uveVMWSaCAfLVW6-37" value="cout &lt;&lt; &quot;кол-во итераций - &quot; &lt;&lt; k &lt;&lt; endl;" style="shape=parallelogram;perimeter=parallelogramPerimeter;whiteSpace=wrap;html=1;fixedSize=1;" parent="1" vertex="1">
          <mxGeometry x="581.84" y="389.5" width="180" height="40" as="geometry" />
        </mxCell>
        <mxCell id="5_U__uveVMWSaCAfLVW6-38" value="" style="endArrow=none;html=1;rounded=0;entryX=0.5;entryY=1;entryDx=0;entryDy=0;" parent="1" target="5_U__uveVMWSaCAfLVW6-37" edge="1">
          <mxGeometry width="50" height="50" relative="1" as="geometry">
            <mxPoint x="671.84" y="459.5" as="sourcePoint" />
            <mxPoint x="661.84" y="149.5" as="targetPoint" />
          </mxGeometry>
        </mxCell>
        <mxCell id="5_U__uveVMWSaCAfLVW6-39" value="cout &lt;&lt; &quot;найденный корень - &quot; &lt;&lt; x1;" style="shape=parallelogram;perimeter=parallelogramPerimeter;whiteSpace=wrap;html=1;fixedSize=1;" parent="1" vertex="1">
          <mxGeometry x="580.27" y="449.5" width="180" height="40" as="geometry" />
        </mxCell>
        <mxCell id="5_U__uveVMWSaCAfLVW6-40" value="return 0;" style="ellipse;whiteSpace=wrap;html=1;" parent="1" vertex="1">
          <mxGeometry x="611.34" y="619.5" width="120" height="40" as="geometry" />
        </mxCell>
        <mxCell id="5_U__uveVMWSaCAfLVW6-41" value="" style="endArrow=none;html=1;rounded=0;entryX=0.5;entryY=1;entryDx=0;entryDy=0;exitX=0.5;exitY=0;exitDx=0;exitDy=0;" parent="1" source="5_U__uveVMWSaCAfLVW6-40" target="5_U__uveVMWSaCAfLVW6-39" edge="1">
          <mxGeometry width="50" height="50" relative="1" as="geometry">
            <mxPoint x="611.84" y="479.5" as="sourcePoint" />
            <mxPoint x="661.84" y="429.5" as="targetPoint" />
          </mxGeometry>
        </mxCell>
        <mxCell id="5_U__uveVMWSaCAfLVW6-42" value="}" style="text;html=1;align=center;verticalAlign=middle;whiteSpace=wrap;rounded=0;" parent="1" vertex="1">
          <mxGeometry x="698.71" y="650" width="60" height="30" as="geometry" />
        </mxCell>
        <mxCell id="nxEbbRQNS9i-_KMU1Lv2-1" value="unsigned int end_time = clock();" style="rounded=0;whiteSpace=wrap;html=1;" parent="1" vertex="1">
          <mxGeometry x="581.8399999999999" y="509.5" width="176.87" height="30" as="geometry" />
        </mxCell>
        <mxCell id="nxEbbRQNS9i-_KMU1Lv2-2" value="cout &amp;lt;&amp;lt; &quot; Время выполнения - &quot;&amp;lt;&amp;lt;end_time-start_time&amp;lt;&amp;lt;endl;" style="shape=parallelogram;perimeter=parallelogramPerimeter;whiteSpace=wrap;html=1;fixedSize=1;" parent="1" vertex="1">
          <mxGeometry x="564" y="559.5" width="215.68" height="40" as="geometry" />
        </mxCell>
        <mxCell id="nxEbbRQNS9i-_KMU1Lv2-6" value="unsigned int start_time = clock();" style="rounded=0;whiteSpace=wrap;html=1;" parent="1" vertex="1">
          <mxGeometry x="88.52999999999994" y="150" width="176.87" height="30" as="geometry" />
        </mxCell>
        <mxCell id="nxEbbRQNS9i-_KMU1Lv2-7" value="" style="endArrow=none;html=1;rounded=0;entryX=0.5;entryY=1;entryDx=0;entryDy=0;" parent="1" source="5_U__uveVMWSaCAfLVW6-9" target="nxEbbRQNS9i-_KMU1Lv2-6" edge="1">
          <mxGeometry width="50" height="50" relative="1" as="geometry">
            <mxPoint x="157.84" y="330" as="sourcePoint" />
            <mxPoint x="207.84" y="280" as="targetPoint" />
          </mxGeometry>
        </mxCell>
        <mxCell id="Jv5JOpr9cHoE0KzBBprI-1" value="d" style="ellipse;whiteSpace=wrap;html=1;aspect=fixed;" vertex="1" parent="1">
          <mxGeometry x="162.72" y="629.5" width="30" height="30" as="geometry" />
        </mxCell>
        <mxCell id="Jv5JOpr9cHoE0KzBBprI-2" value="d" style="ellipse;whiteSpace=wrap;html=1;aspect=fixed;" vertex="1" parent="1">
          <mxGeometry x="508.23999999999995" y="60" width="30" height="30" as="geometry" />
        </mxCell>
        <mxCell id="Jv5JOpr9cHoE0KzBBprI-3" value="" style="endArrow=none;html=1;rounded=0;entryX=0.5;entryY=1;entryDx=0;entryDy=0;exitX=0.5;exitY=0;exitDx=0;exitDy=0;" edge="1" parent="1" source="5_U__uveVMWSaCAfLVW6-25" target="Jv5JOpr9cHoE0KzBBprI-2">
          <mxGeometry width="50" height="50" relative="1" as="geometry">
            <mxPoint x="430" y="370" as="sourcePoint" />
            <mxPoint x="480" y="320" as="targetPoint" />
          </mxGeometry>
        </mxCell>
        <mxCell id="Jv5JOpr9cHoE0KzBBprI-5" value="{" style="text;html=1;align=center;verticalAlign=middle;whiteSpace=wrap;rounded=0;" vertex="1" parent="1">
          <mxGeometry x="480" y="170.5" width="35.75" height="30" as="geometry" />
        </mxCell>
        <mxCell id="Jv5JOpr9cHoE0KzBBprI-6" value="}" style="text;html=1;align=center;verticalAlign=middle;whiteSpace=wrap;rounded=0;" vertex="1" parent="1">
          <mxGeometry x="640.27" y="110.5" width="60" height="30" as="geometry" />
        </mxCell>
      </root>
    </mxGraphModel>
  </diagram>
</mxfile>
